<svg width="147" height="147" viewBox="0 0 147 147" fill="none" xmlns="http://www.w3.org/2000/svg">
<path d="M105.317 78.2193C110.491 78.2427 114.673 82.4732 114.673 87.6836C114.673 92.8142 110.513 97.275 105.42 97.4094L97.2201 97.4094L91.7059 91.8562C86.6935 86.8084 90.2689 78.2193 97.3826 78.2193L105.317 78.2193Z" fill="url(#paint0_linear_602_402)"/>
<path d="M78.1646 105.371C78.1882 110.545 82.4527 114.727 87.7052 114.727C92.8771 114.727 97.3738 110.568 97.5093 105.475L97.5093 99.1471C97.5093 99.1471 96.6674 88.3282 98.8571 84.0387C100.68 80.4673 105.312 78.2193 105.312 78.2193L86.1645 78.2193C81.7463 78.2193 78.1645 81.801 78.1645 86.2193L78.1646 105.371Z" fill="#59C3FF"/>
<path d="M41.1833 67.9221C36.0094 67.8987 31.8275 63.6682 31.8275 58.4578C31.8275 53.3272 35.987 48.8664 41.0798 48.732L49.2799 48.732L54.7941 54.2852C59.8065 59.333 56.2311 67.9221 49.1174 67.9221L41.1833 67.9221Z" fill="url(#paint1_linear_602_402)"/>
<path d="M68.3354 41.238C68.3122 36.0642 64.1212 31.8822 58.9593 31.8822C53.8766 31.8822 49.4574 36.0418 49.3242 41.1346V48.8666C49.3242 48.8666 50.1516 57.8132 47.9997 62.1027C46.208 65.6742 41.6565 67.9221 41.6565 67.9221H60.3354C64.7537 67.9221 68.3354 64.3404 68.3354 59.9221V41.238Z" fill="#59C3FF"/>
<path d="M68.2167 105.542C68.1935 110.684 64.0187 114.84 58.8767 114.84C53.8136 114.84 49.4114 110.706 49.2788 105.645L49.2788 97.5069L54.5598 92.2259C59.5995 87.1862 68.2167 90.7555 68.2167 97.8827L68.2167 105.542Z" fill="url(#paint2_linear_602_402)"/>
<path d="M41.1833 78.2193C36.0094 78.2429 31.8275 82.5075 31.8275 87.7599C31.8275 92.9318 35.987 97.4286 41.0798 97.564L49.2799 97.564C49.2799 97.564 58.2266 96.7222 62.516 98.9118C66.0875 100.735 68.3354 105.366 68.3354 105.366L68.3354 86.2193C68.3354 81.801 64.7537 78.2193 60.3354 78.2193L41.1833 78.2193Z" fill="#257CFF"/>
<path d="M78.3697 41.0445C78.3928 35.9026 82.5677 31.7465 87.7097 31.7465C92.7728 31.7465 97.1749 35.8803 97.3075 40.9417L97.3075 49.0795L92.0265 54.3605C86.9868 59.4002 78.3697 55.8309 78.3697 48.7037L78.3697 41.0445Z" fill="url(#paint3_linear_602_402)"/>
<path d="M105.403 68.3671C110.577 68.3435 114.759 64.0789 114.759 58.8264C114.759 53.6546 110.599 49.1578 105.507 49.0223L97.3065 49.0223C97.3065 49.0223 88.3598 49.8642 84.0704 47.6746C80.4989 45.8515 78.2509 41.2201 78.2509 41.2201L78.2509 60.3671C78.2509 64.7854 81.8327 68.3671 86.2509 68.3671L105.403 68.3671Z" fill="#257CFF"/>
<defs>
<linearGradient id="paint0_linear_602_402" x1="116.68" y1="84.7909" x2="80.3619" y2="97.2023" gradientUnits="userSpaceOnUse">
<stop stop-color="#59C3FF"/>
<stop offset="1" stop-color="#DCF2FF"/>
</linearGradient>
<linearGradient id="paint1_linear_602_402" x1="29.8204" y1="61.3505" x2="66.1381" y2="48.9391" gradientUnits="userSpaceOnUse">
<stop stop-color="#59C3FF"/>
<stop offset="1" stop-color="#DCF2FF"/>
</linearGradient>
<linearGradient id="paint2_linear_602_402" x1="61.7314" y1="116.834" x2="49.3351" y2="80.803" gradientUnits="userSpaceOnUse">
<stop stop-color="#257CFF"/>
<stop offset="1" stop-color="#CFE2FF"/>
</linearGradient>
<linearGradient id="paint3_linear_602_402" x1="84.855" y1="29.7525" x2="97.2513" y2="65.7834" gradientUnits="userSpaceOnUse">
<stop stop-color="#257CFF"/>
<stop offset="1" stop-color="#CFE2FF"/>
</linearGradient>
</defs>
</svg>
