<svg width="230" height="230" viewBox="0 0 230 230" fill="none" xmlns="http://www.w3.org/2000/svg">
<circle opacity="0.4" cx="115" cy="115" r="115" fill="#FFF2D0"/>
<rect width="116.016" height="75" transform="translate(57.5 77)" fill="white"/>
<path d="M77.5 93C77.5 84.1634 84.6634 77 93.5 77H156.5C165.337 77 172.5 84.1634 172.5 93V136C172.5 144.837 165.337 152 156.5 152H93.5C84.6634 152 77.5 144.837 77.5 136V93Z" fill="#FEC739"/>
<path d="M96.1718 99.0623C96.1718 94.644 99.7535 91.0623 104.172 91.0623H133.594C144.639 91.0623 153.594 100.017 153.594 111.062V126.422C153.594 130.84 150.012 134.422 145.594 134.422H104.172C99.7535 134.422 96.1718 130.84 96.1718 126.422V99.0623Z" fill="#FED261"/>
<path d="M142.095 92.2341H101.344C99.1346 92.2341 97.3437 94.025 97.3437 96.2341V129.25C97.3437 131.459 99.1345 133.25 101.344 133.25H148.422C150.631 133.25 152.422 131.459 152.422 129.25V95.1226" stroke="#302F30" stroke-width="2" stroke-linecap="round"/>
<path d="M110.234 120.359L99.1015 131.492" stroke="#302F30" stroke-width="2" stroke-linecap="round"/>
<path d="M78.5937 150.828H156.344C165.18 150.828 172.344 143.665 172.344 134.828V101.609M77.4219 142.039V93C77.4219 84.1634 84.5853 77 93.4219 77H158.281C166.048 77 172.344 83.296 172.344 91.0625" stroke="#302F30" stroke-width="2" stroke-linecap="round"/>
<path d="M120.71 114.972L97.3437 102.781V96.2341C97.3437 94.025 99.1345 92.2341 101.344 92.2341H141.588C147.571 92.2341 152.422 97.0846 152.422 103.068L127.93 115.064C125.646 116.183 122.965 116.149 120.71 114.972Z" fill="#FFF2D0"/>
<path d="M152.422 95.1638V103.068L127.93 115.064C125.646 116.183 122.965 116.149 120.71 114.972L119.805 114.5L114.922 111.952L97.3437 102.781V96.2341C97.3437 94.025 99.1346 92.2341 101.344 92.2341H141.875" stroke="#302F30" stroke-width="2" stroke-linecap="round"/>
<path d="M139.531 120.359L140.703 121.531M150.664 131.492L144.219 125.047" stroke="#302F30" stroke-width="2" stroke-linecap="round"/>
<path d="M57.5 100.438H61.0156M87.9687 100.438H65.7031" stroke="#302F30" stroke-width="2" stroke-linecap="round"/>
<line x1="72.5625" y1="113.5" x2="84.625" y2="113.5" stroke="#302F30" stroke-width="2" stroke-linecap="round"/>
<line x1="65.5312" y1="125.219" x2="89.3124" y2="125.219" stroke="#302F30" stroke-width="2" stroke-linecap="round"/>
</svg>
