<svg width="230" height="230" viewBox="0 0 230 230" fill="none" xmlns="http://www.w3.org/2000/svg">
<circle opacity="0.4" cx="115" cy="115" r="115" fill="#FFF2D0"/>
<rect width="80.1127" height="75" transform="translate(75.5 77)" fill="white"/>
<path d="M100.257 109.039V98.8446C100.257 94.4757 104.626 86.466 114.456 85.7378V77.364C99.1651 78.4562 92.6117 88.6504 91.5194 98.8446V109.039H100.257Z" fill="#36394A"/>
<path d="M130.112 109.039V103.053C130.112 99.2886 129.903 95.3603 127.725 92.2904C125.073 88.5522 120.24 85.0021 112.636 85.7379V77.3641C126.107 75.9077 136.665 85.7378 136.665 98.8446V102.486C136.665 106.105 133.731 109.039 130.112 109.039Z" fill="#36394A"/>
<path d="M100.257 109.039V106.854M130.112 109.039V103.053C130.112 99.2884 129.979 95.329 127.819 92.2468C125.063 88.3167 120.433 85.7378 115.184 85.7378C109.73 85.7378 104.942 88.5239 102.234 92.7174C100.396 95.5628 100.257 99.0981 100.257 102.485" stroke="#36394A" stroke-width="2" stroke-linecap="round"/>
<path d="M138.85 109.039V98.1165V97.3883C138.583 95.0837 137.982 92.882 137.091 90.835M91.5194 109.039L91.594 98.1165C92.566 86.2998 102.92 77 115.549 77C123.88 77 130.957 81.0472 135.095 87.1942" stroke="#36394A" stroke-width="2" stroke-linecap="round"/>
<path d="M82.0534 117.039C82.0534 112.621 85.6351 109.039 90.0534 109.039H135.947C140.365 109.039 143.947 112.621 143.947 117.039V128C143.947 141.255 133.201 152 119.947 152H90.0534C85.6351 152 82.0534 148.418 82.0534 144V117.039Z" fill="#FED261"/>
<path d="M82.0534 117.039C82.0534 112.621 85.6351 109.039 90.0534 109.039H90.5194C91.0717 109.039 91.5194 109.476 91.5194 110.029C91.5194 114.04 91.5194 129.265 91.5194 137.437C91.5194 146.903 91.1205 150.866 96.6165 152H90.0534C85.6351 152 82.0534 148.418 82.0534 144V117.039Z" fill="#FED261"/>
<path d="M75.5 152H78.4126M146.859 117.49V117.039C146.859 112.621 143.277 109.039 138.859 109.039H90.0534C85.6351 109.039 82.0534 112.621 82.0534 117.039V146.175M146.859 121.716V144C146.859 148.418 143.277 152 138.859 152H80.5971" stroke="#36394A" stroke-width="2" stroke-linecap="round"/>
<path d="M91.5194 113.408V144C91.5194 148.418 95.1011 152 99.5194 152H138.859C143.277 152 146.859 148.418 146.859 144V122.004" stroke="#36394A" stroke-width="2" stroke-linecap="round"/>
<path d="M135.209 123.602H146.859" stroke="#36394A" stroke-width="2" stroke-linecap="round"/>
<path d="M135.209 137.437H136.665M146.859 137.437H139.578" stroke="#36394A" stroke-width="2" stroke-linecap="round"/>
<path d="M91.5194 137.437H105.354" stroke="#36394A" stroke-width="2" stroke-linecap="round"/>
<path d="M91.5194 123.602H100.985M105.354 123.602H103.534" stroke="#36394A" stroke-width="2" stroke-linecap="round"/>
<path d="M120.282 116.32C115.657 116.32 111.908 120.069 111.908 124.694C111.908 127.724 113.866 130.505 116.277 131.976V141.534C116.277 142.086 116.724 142.534 117.277 142.534H120.282H122.83H123.286C123.839 142.534 124.286 142.086 124.286 141.534V131.976C126.697 130.505 128.655 127.724 128.655 124.694C128.655 120.069 124.906 116.32 120.282 116.32Z" fill="#E1E8BE"/>
<path d="M120.646 124.729C120.646 122.175 119.031 119.329 117.098 117.873C116.822 117.665 116.449 117.648 116.149 117.819C111.934 120.228 112.272 124.694 112.272 124.694C112.272 124.694 112.272 129.076 116.166 131.418C116.458 131.593 116.825 131.586 117.105 131.393C119.118 130.009 120.646 127.414 120.646 124.729Z" fill="white"/>
<path d="M122.83 142.534H123.286C123.839 142.534 124.286 142.086 124.286 141.534V131.976C126.697 130.505 128.655 127.724 128.655 124.694C128.655 120.069 124.906 116.32 120.282 116.32C115.657 116.32 111.908 120.069 111.908 124.694C111.908 127.724 113.866 130.505 116.277 131.976V141.534C116.277 142.086 116.724 142.534 117.277 142.534H119.917" stroke="#36394A" stroke-width="2" stroke-linecap="round"/>
<path d="M116.277 117.413C117.059 117.884 117.81 118.492 118.461 119.202M116.277 131.976C118.718 130.615 120.646 127.385 120.646 124.33C120.646 123.444 120.456 122.586 120.127 121.782" stroke="#36394A" stroke-width="2" stroke-linecap="round"/>
<path d="M144.675 97.3884L149.695 93.176" stroke="#FED261" stroke-width="2" stroke-linecap="round"/>
<path d="M145.403 103.558L146.131 103.429M155.613 101.757L147.724 103.148" stroke="#FED261" stroke-width="2" stroke-linecap="round"/>
</svg>
